<?xml version="1.0" encoding="utf-8"?><svg width="auto" height="3120" style="overflow:visible " version="1.1" xmlns="http://www.w3.org/2000/svg"><rect x="20" y="20" width="200" height="40" style="fill:white;stroke:black;stroke-width:1" /><text x="30" y="30" font-size="10" style="fill:blue">xs:schema</text><text x="30" y="40" font-size="8" style="fill:black">elementFormDefault: qualified</text><text x="30" y="50" font-size="8" style="fill:black">xmlns:xs: http://www.w3.org/2001/XMLSchema</text><rect x="240" y="20" width="200" height="40" style="fill:white;stroke:black;stroke-width:1" /><text x="250" y="30" font-size="10" style="fill:blue">xs:element</text><path d="M220 40 C240 40 220 40 240 40" style="fill:transparent;stroke:black" /><text x="250" y="40" font-size="8" style="fill:black">name: rutas</text><rect x="460" y="20" width="200" height="40" style="fill:white;stroke:black;stroke-width:1" /><text x="470" y="30" font-size="10" style="fill:blue">xs:complexType</text><path d="M440 40 C460 40 440 40 460 40" style="fill:transparent;stroke:black" /><rect x="680" y="20" width="200" height="40" style="fill:white;stroke:black;stroke-width:1" /><text x="690" y="30" font-size="10" style="fill:blue">xs:sequence</text><path d="M660 40 C680 40 660 40 680 40" style="fill:transparent;stroke:black" /><rect x="900" y="20" width="200" height="40" style="fill:white;stroke:black;stroke-width:1" /><text x="910" y="30" font-size="10" style="fill:blue">xs:element</text><path d="M880 40 C900 40 880 40 900 40" style="fill:transparent;stroke:black" /><text x="910" y="40" font-size="8" style="fill:black">minOccurs: 5</text><text x="910" y="50" font-size="8" style="fill:black">maxOccurs: unbounded</text><text x="910" y="60" font-size="8" style="fill:black">ref: ruta</text><rect x="240" y="220" width="200" height="40" style="fill:white;stroke:black;stroke-width:1" /><text x="250" y="230" font-size="10" style="fill:blue">xs:element</text><path d="M220 40 C240 40 220 240 240 240" style="fill:transparent;stroke:black" /><text x="250" y="240" font-size="8" style="fill:black">name: ruta</text><rect x="460" y="220" width="200" height="40" style="fill:white;stroke:black;stroke-width:1" /><text x="470" y="230" font-size="10" style="fill:blue">xs:complexType</text><path d="M440 240 C460 240 440 240 460 240" style="fill:transparent;stroke:black" /><rect x="680" y="220" width="200" height="40" style="fill:white;stroke:black;stroke-width:1" /><text x="690" y="230" font-size="10" style="fill:blue">xs:sequence</text><path d="M660 240 C680 240 660 240 680 240" style="fill:transparent;stroke:black" /><rect x="900" y="220" width="200" height="40" style="fill:white;stroke:black;stroke-width:1" /><text x="910" y="230" font-size="10" style="fill:blue">xs:element</text><path d="M880 240 C900 240 880 240 900 240" style="fill:transparent;stroke:black" /><text x="910" y="240" font-size="8" style="fill:black">name: nombre</text><text x="910" y="250" font-size="8" style="fill:black">type: xs:string</text><rect x="900" y="270" width="200" height="40" style="fill:white;stroke:black;stroke-width:1" /><text x="910" y="280" font-size="10" style="fill:blue">xs:element</text><path d="M880 240 C900 240 880 290 900 290" style="fill:transparent;stroke:black" /><text x="910" y="290" font-size="8" style="fill:black">name: descripcion</text><text x="910" y="300" font-size="8" style="fill:black">type: xs:string</text><rect x="900" y="320" width="200" height="40" style="fill:white;stroke:black;stroke-width:1" /><text x="910" y="330" font-size="10" style="fill:blue">xs:element</text><path d="M880 240 C900 240 880 340 900 340" style="fill:transparent;stroke:black" /><text x="910" y="340" font-size="8" style="fill:black">ref: inicio</text><rect x="900" y="370" width="200" height="40" style="fill:white;stroke:black;stroke-width:1" /><text x="910" y="380" font-size="10" style="fill:blue">xs:element</text><path d="M880 240 C900 240 880 390 900 390" style="fill:transparent;stroke:black" /><text x="910" y="390" font-size="8" style="fill:black">minOccurs: 0</text><text x="910" y="400" font-size="8" style="fill:black">maxOccurs: 1</text><text x="910" y="410" font-size="8" style="fill:black">name: fechaInicio</text><text x="910" y="420" font-size="8" style="fill:black">type: xs:date</text><rect x="900" y="420" width="200" height="40" style="fill:white;stroke:black;stroke-width:1" /><text x="910" y="430" font-size="10" style="fill:blue">xs:element</text><path d="M880 240 C900 240 880 440 900 440" style="fill:transparent;stroke:black" /><text x="910" y="440" font-size="8" style="fill:black">minOccurs: 0</text><text x="910" y="450" font-size="8" style="fill:black">maxOccurs: 1</text><text x="910" y="460" font-size="8" style="fill:black">name: horaInicio</text><text x="910" y="470" font-size="8" style="fill:black">type: xs:time</text><rect x="900" y="470" width="200" height="40" style="fill:white;stroke:black;stroke-width:1" /><text x="910" y="480" font-size="10" style="fill:blue">xs:element</text><path d="M880 240 C900 240 880 490 900 490" style="fill:transparent;stroke:black" /><text x="910" y="490" font-size="8" style="fill:black">ref: hitos</text><rect x="900" y="520" width="200" height="40" style="fill:white;stroke:black;stroke-width:1" /><text x="910" y="530" font-size="10" style="fill:blue">xs:element</text><path d="M880 240 C900 240 880 540 900 540" style="fill:transparent;stroke:black" /><text x="910" y="540" font-size="8" style="fill:black">ref: bibliografia</text><rect x="680" y="620" width="200" height="40" style="fill:white;stroke:black;stroke-width:1" /><text x="690" y="630" font-size="10" style="fill:blue">xs:attribute</text><path d="M660 240 C680 240 660 640 680 640" style="fill:transparent;stroke:black" /><text x="690" y="640" font-size="8" style="fill:black">name: tipo</text><text x="690" y="650" font-size="8" style="fill:black">type: xs:string</text><text x="690" y="660" font-size="8" style="fill:black">use: required</text><rect x="680" y="670" width="200" height="40" style="fill:white;stroke:black;stroke-width:1" /><text x="690" y="680" font-size="10" style="fill:blue">xs:attribute</text><path d="M660 240 C680 240 660 690 680 690" style="fill:transparent;stroke:black" /><text x="690" y="690" font-size="8" style="fill:black">name: medio</text><text x="690" y="700" font-size="8" style="fill:black">type: xs:string</text><text x="690" y="710" font-size="8" style="fill:black">use: required</text><rect x="680" y="720" width="200" height="40" style="fill:white;stroke:black;stroke-width:1" /><text x="690" y="730" font-size="10" style="fill:blue">xs:attribute</text><path d="M660 240 C680 240 660 740 680 740" style="fill:transparent;stroke:black" /><text x="690" y="740" font-size="8" style="fill:black">name: duracion</text><text x="690" y="750" font-size="8" style="fill:black">type: xs:duration</text><text x="690" y="760" font-size="8" style="fill:black">use: required</text><rect x="680" y="770" width="200" height="40" style="fill:white;stroke:black;stroke-width:1" /><text x="690" y="780" font-size="10" style="fill:blue">xs:attribute</text><path d="M660 240 C680 240 660 790 680 790" style="fill:transparent;stroke:black" /><text x="690" y="790" font-size="8" style="fill:black">name: agencia</text><text x="690" y="800" font-size="8" style="fill:black">type: xs:string</text><text x="690" y="810" font-size="8" style="fill:black">use: required</text><rect x="680" y="820" width="200" height="40" style="fill:white;stroke:black;stroke-width:1" /><text x="690" y="830" font-size="10" style="fill:blue">xs:attribute</text><path d="M660 240 C680 240 660 840 680 840" style="fill:transparent;stroke:black" /><text x="690" y="840" font-size="8" style="fill:black">name: adecuadoPara</text><text x="690" y="850" font-size="8" style="fill:black">type: xs:string</text><text x="690" y="860" font-size="8" style="fill:black">use: required</text><rect x="680" y="870" width="200" height="40" style="fill:white;stroke:black;stroke-width:1" /><text x="690" y="880" font-size="10" style="fill:blue">xs:attribute</text><path d="M660 240 C680 240 660 890 680 890" style="fill:transparent;stroke:black" /><text x="690" y="890" font-size="8" style="fill:black">name: recomendacion</text><text x="690" y="900" font-size="8" style="fill:black">type: xs:NMTOKEN</text><text x="690" y="910" font-size="8" style="fill:black">use: required</text><rect x="240" y="1020" width="200" height="40" style="fill:white;stroke:black;stroke-width:1" /><text x="250" y="1030" font-size="10" style="fill:blue">xs:element</text><path d="M220 40 C240 40 220 1040 240 1040" style="fill:transparent;stroke:black" /><text x="250" y="1040" font-size="8" style="fill:black">name: inicio</text><rect x="460" y="1020" width="200" height="40" style="fill:white;stroke:black;stroke-width:1" /><text x="470" y="1030" font-size="10" style="fill:blue">xs:complexType</text><path d="M440 1040 C460 1040 440 1040 460 1040" style="fill:transparent;stroke:black" /><rect x="680" y="1020" width="200" height="40" style="fill:white;stroke:black;stroke-width:1" /><text x="690" y="1030" font-size="10" style="fill:blue">xs:sequence</text><path d="M660 1040 C680 1040 660 1040 680 1040" style="fill:transparent;stroke:black" /><rect x="900" y="1020" width="200" height="40" style="fill:white;stroke:black;stroke-width:1" /><text x="910" y="1030" font-size="10" style="fill:blue">xs:element</text><path d="M880 1040 C900 1040 880 1040 900 1040" style="fill:transparent;stroke:black" /><text x="910" y="1040" font-size="8" style="fill:black">name: lugar</text><text x="910" y="1050" font-size="8" style="fill:black">type: xs:string</text><rect x="900" y="1070" width="200" height="40" style="fill:white;stroke:black;stroke-width:1" /><text x="910" y="1080" font-size="10" style="fill:blue">xs:element</text><path d="M880 1040 C900 1040 880 1090 900 1090" style="fill:transparent;stroke:black" /><text x="910" y="1090" font-size="8" style="fill:black">ref: coordenadas</text><rect x="680" y="1170" width="200" height="40" style="fill:white;stroke:black;stroke-width:1" /><text x="690" y="1180" font-size="10" style="fill:blue">xs:attribute</text><path d="M660 1040 C680 1040 660 1190 680 1190" style="fill:transparent;stroke:black" /><text x="690" y="1190" font-size="8" style="fill:black">name: direccion</text><text x="690" y="1200" font-size="8" style="fill:black">type: xs:string</text><text x="690" y="1210" font-size="8" style="fill:black">use: required</text><rect x="240" y="1320" width="200" height="40" style="fill:white;stroke:black;stroke-width:1" /><text x="250" y="1330" font-size="10" style="fill:blue">xs:element</text><path d="M220 40 C240 40 220 1340 240 1340" style="fill:transparent;stroke:black" /><text x="250" y="1340" font-size="8" style="fill:black">name: coordenadas</text><rect x="460" y="1320" width="200" height="40" style="fill:white;stroke:black;stroke-width:1" /><text x="470" y="1330" font-size="10" style="fill:blue">xs:complexType</text><path d="M440 1340 C460 1340 440 1340 460 1340" style="fill:transparent;stroke:black" /><rect x="680" y="1320" width="200" height="40" style="fill:white;stroke:black;stroke-width:1" /><text x="690" y="1330" font-size="10" style="fill:blue">xs:attribute</text><path d="M660 1340 C680 1340 660 1340 680 1340" style="fill:transparent;stroke:black" /><text x="690" y="1340" font-size="8" style="fill:black">name: latitud</text><text x="690" y="1350" font-size="8" style="fill:black">type: xs:double</text><text x="690" y="1360" font-size="8" style="fill:black">use: required</text><rect x="680" y="1370" width="200" height="40" style="fill:white;stroke:black;stroke-width:1" /><text x="690" y="1380" font-size="10" style="fill:blue">xs:attribute</text><path d="M660 1340 C680 1340 660 1390 680 1390" style="fill:transparent;stroke:black" /><text x="690" y="1390" font-size="8" style="fill:black">name: longitud</text><text x="690" y="1400" font-size="8" style="fill:black">type: xs:double</text><text x="690" y="1410" font-size="8" style="fill:black">use: required</text><rect x="680" y="1420" width="200" height="40" style="fill:white;stroke:black;stroke-width:1" /><text x="690" y="1430" font-size="10" style="fill:blue">xs:attribute</text><path d="M660 1340 C680 1340 660 1440 680 1440" style="fill:transparent;stroke:black" /><text x="690" y="1440" font-size="8" style="fill:black">name: altitud</text><text x="690" y="1450" font-size="8" style="fill:black">type: xs:double</text><text x="690" y="1460" font-size="8" style="fill:black">use: required</text><rect x="240" y="1570" width="200" height="40" style="fill:white;stroke:black;stroke-width:1" /><text x="250" y="1580" font-size="10" style="fill:blue">xs:element</text><path d="M220 40 C240 40 220 1590 240 1590" style="fill:transparent;stroke:black" /><text x="250" y="1590" font-size="8" style="fill:black">name: hitos</text><rect x="460" y="1570" width="200" height="40" style="fill:white;stroke:black;stroke-width:1" /><text x="470" y="1580" font-size="10" style="fill:blue">xs:complexType</text><path d="M440 1590 C460 1590 440 1590 460 1590" style="fill:transparent;stroke:black" /><rect x="680" y="1570" width="200" height="40" style="fill:white;stroke:black;stroke-width:1" /><text x="690" y="1580" font-size="10" style="fill:blue">xs:sequence</text><path d="M660 1590 C680 1590 660 1590 680 1590" style="fill:transparent;stroke:black" /><rect x="900" y="1570" width="200" height="40" style="fill:white;stroke:black;stroke-width:1" /><text x="910" y="1580" font-size="10" style="fill:blue">xs:element</text><path d="M880 1590 C900 1590 880 1590 900 1590" style="fill:transparent;stroke:black" /><text x="910" y="1590" font-size="8" style="fill:black">minOccurs: 3</text><text x="910" y="1600" font-size="8" style="fill:black">maxOccurs: unbounded</text><text x="910" y="1610" font-size="8" style="fill:black">ref: hito</text><rect x="240" y="1770" width="200" height="40" style="fill:white;stroke:black;stroke-width:1" /><text x="250" y="1780" font-size="10" style="fill:blue">xs:simpleType</text><path d="M220 40 C240 40 220 1790 240 1790" style="fill:transparent;stroke:black" /><text x="250" y="1790" font-size="8" style="fill:black">name: unidades</text><rect x="460" y="1770" width="200" height="40" style="fill:white;stroke:black;stroke-width:1" /><text x="470" y="1780" font-size="10" style="fill:blue">xs:restriction</text><path d="M440 1790 C460 1790 440 1790 460 1790" style="fill:transparent;stroke:black" /><text x="470" y="1790" font-size="8" style="fill:black">base: xs:token</text><rect x="680" y="1770" width="200" height="40" style="fill:white;stroke:black;stroke-width:1" /><text x="690" y="1780" font-size="10" style="fill:blue">xs:enumeration</text><path d="M660 1790 C680 1790 660 1790 680 1790" style="fill:transparent;stroke:black" /><text x="690" y="1790" font-size="8" style="fill:black">value: km</text><rect x="680" y="1820" width="200" height="40" style="fill:white;stroke:black;stroke-width:1" /><text x="690" y="1830" font-size="10" style="fill:blue">xs:enumeration</text><path d="M660 1790 C680 1790 660 1840 680 1840" style="fill:transparent;stroke:black" /><text x="690" y="1840" font-size="8" style="fill:black">value: m</text><rect x="240" y="1970" width="200" height="40" style="fill:white;stroke:black;stroke-width:1" /><text x="250" y="1980" font-size="10" style="fill:blue">xs:element</text><path d="M220 40 C240 40 220 1990 240 1990" style="fill:transparent;stroke:black" /><text x="250" y="1990" font-size="8" style="fill:black">name: hito</text><rect x="460" y="1970" width="200" height="40" style="fill:white;stroke:black;stroke-width:1" /><text x="470" y="1980" font-size="10" style="fill:blue">xs:complexType</text><path d="M440 1990 C460 1990 440 1990 460 1990" style="fill:transparent;stroke:black" /><rect x="680" y="1970" width="200" height="40" style="fill:white;stroke:black;stroke-width:1" /><text x="690" y="1980" font-size="10" style="fill:blue">xs:sequence</text><path d="M660 1990 C680 1990 660 1990 680 1990" style="fill:transparent;stroke:black" /><rect x="900" y="1970" width="200" height="40" style="fill:white;stroke:black;stroke-width:1" /><text x="910" y="1980" font-size="10" style="fill:blue">xs:element</text><path d="M880 1990 C900 1990 880 1990 900 1990" style="fill:transparent;stroke:black" /><text x="910" y="1990" font-size="8" style="fill:black">ref: coordenadas</text><rect x="900" y="2020" width="200" height="40" style="fill:white;stroke:black;stroke-width:1" /><text x="910" y="2030" font-size="10" style="fill:blue">xs:element</text><path d="M880 1990 C900 1990 880 2040 900 2040" style="fill:transparent;stroke:black" /><text x="910" y="2040" font-size="8" style="fill:black">name: nombreHito</text><text x="910" y="2050" font-size="8" style="fill:black">type: xs:string</text><rect x="900" y="2070" width="200" height="40" style="fill:white;stroke:black;stroke-width:1" /><text x="910" y="2080" font-size="10" style="fill:blue">xs:element</text><path d="M880 1990 C900 1990 880 2090 900 2090" style="fill:transparent;stroke:black" /><text x="910" y="2090" font-size="8" style="fill:black">name: descripcionHito</text><text x="910" y="2100" font-size="8" style="fill:black">type: xs:string</text><rect x="900" y="2120" width="200" height="40" style="fill:white;stroke:black;stroke-width:1" /><text x="910" y="2130" font-size="10" style="fill:blue">xs:element</text><path d="M880 1990 C900 1990 880 2140 900 2140" style="fill:transparent;stroke:black" /><text x="910" y="2140" font-size="8" style="fill:black">ref: imagenes</text><rect x="900" y="2170" width="200" height="40" style="fill:white;stroke:black;stroke-width:1" /><text x="910" y="2180" font-size="10" style="fill:blue">xs:element</text><path d="M880 1990 C900 1990 880 2190 900 2190" style="fill:transparent;stroke:black" /><text x="910" y="2190" font-size="8" style="fill:black">ref: videos</text><rect x="680" y="2270" width="200" height="40" style="fill:white;stroke:black;stroke-width:1" /><text x="690" y="2280" font-size="10" style="fill:blue">xs:attribute</text><path d="M660 1990 C680 1990 660 2290 680 2290" style="fill:transparent;stroke:black" /><text x="690" y="2290" font-size="8" style="fill:black">name: distancia</text><text x="690" y="2300" font-size="8" style="fill:black">type: xs:double</text><text x="690" y="2310" font-size="8" style="fill:black">use: required</text><rect x="680" y="2320" width="200" height="40" style="fill:white;stroke:black;stroke-width:1" /><text x="690" y="2330" font-size="10" style="fill:blue">xs:attribute</text><path d="M660 1990 C680 1990 660 2340 680 2340" style="fill:transparent;stroke:black" /><text x="690" y="2340" font-size="8" style="fill:black">name: unidades</text><text x="690" y="2350" font-size="8" style="fill:black">type: unidades</text><text x="690" y="2360" font-size="8" style="fill:black">use: required</text><rect x="240" y="2470" width="200" height="40" style="fill:white;stroke:black;stroke-width:1" /><text x="250" y="2480" font-size="10" style="fill:blue">xs:element</text><path d="M220 40 C240 40 220 2490 240 2490" style="fill:transparent;stroke:black" /><text x="250" y="2490" font-size="8" style="fill:black">name: imagenes</text><rect x="460" y="2470" width="200" height="40" style="fill:white;stroke:black;stroke-width:1" /><text x="470" y="2480" font-size="10" style="fill:blue">xs:complexType</text><path d="M440 2490 C460 2490 440 2490 460 2490" style="fill:transparent;stroke:black" /><rect x="680" y="2470" width="200" height="40" style="fill:white;stroke:black;stroke-width:1" /><text x="690" y="2480" font-size="10" style="fill:blue">xs:sequence</text><path d="M660 2490 C680 2490 660 2490 680 2490" style="fill:transparent;stroke:black" /><rect x="900" y="2470" width="200" height="40" style="fill:white;stroke:black;stroke-width:1" /><text x="910" y="2480" font-size="10" style="fill:blue">xs:element</text><path d="M880 2490 C900 2490 880 2490 900 2490" style="fill:transparent;stroke:black" /><text x="910" y="2490" font-size="8" style="fill:black">minOccurs: 1</text><text x="910" y="2500" font-size="8" style="fill:black">maxOccurs: 5</text><text x="910" y="2510" font-size="8" style="fill:black">name: imagen</text><text x="910" y="2520" font-size="8" style="fill:black">type: xs:string</text><rect x="240" y="2670" width="200" height="40" style="fill:white;stroke:black;stroke-width:1" /><text x="250" y="2680" font-size="10" style="fill:blue">xs:element</text><path d="M220 40 C240 40 220 2690 240 2690" style="fill:transparent;stroke:black" /><text x="250" y="2690" font-size="8" style="fill:black">name: videos</text><rect x="460" y="2670" width="200" height="40" style="fill:white;stroke:black;stroke-width:1" /><text x="470" y="2680" font-size="10" style="fill:blue">xs:complexType</text><path d="M440 2690 C460 2690 440 2690 460 2690" style="fill:transparent;stroke:black" /><rect x="680" y="2670" width="200" height="40" style="fill:white;stroke:black;stroke-width:1" /><text x="690" y="2680" font-size="10" style="fill:blue">xs:sequence</text><path d="M660 2690 C680 2690 660 2690 680 2690" style="fill:transparent;stroke:black" /><rect x="900" y="2670" width="200" height="40" style="fill:white;stroke:black;stroke-width:1" /><text x="910" y="2680" font-size="10" style="fill:blue">xs:element</text><path d="M880 2690 C900 2690 880 2690 900 2690" style="fill:transparent;stroke:black" /><text x="910" y="2690" font-size="8" style="fill:black">minOccurs: 0</text><text x="910" y="2700" font-size="8" style="fill:black">maxOccurs: 3</text><text x="910" y="2710" font-size="8" style="fill:black">name: video</text><text x="910" y="2720" font-size="8" style="fill:black">type: xs:string</text><rect x="240" y="2870" width="200" height="40" style="fill:white;stroke:black;stroke-width:1" /><text x="250" y="2880" font-size="10" style="fill:blue">xs:element</text><path d="M220 40 C240 40 220 2890 240 2890" style="fill:transparent;stroke:black" /><text x="250" y="2890" font-size="8" style="fill:black">name: bibliografia</text><rect x="460" y="2870" width="200" height="40" style="fill:white;stroke:black;stroke-width:1" /><text x="470" y="2880" font-size="10" style="fill:blue">xs:complexType</text><path d="M440 2890 C460 2890 440 2890 460 2890" style="fill:transparent;stroke:black" /><rect x="680" y="2870" width="200" height="40" style="fill:white;stroke:black;stroke-width:1" /><text x="690" y="2880" font-size="10" style="fill:blue">xs:sequence</text><path d="M660 2890 C680 2890 660 2890 680 2890" style="fill:transparent;stroke:black" /><rect x="900" y="2870" width="200" height="40" style="fill:white;stroke:black;stroke-width:1" /><text x="910" y="2880" font-size="10" style="fill:blue">xs:element</text><path d="M880 2890 C900 2890 880 2890 900 2890" style="fill:transparent;stroke:black" /><text x="910" y="2890" font-size="8" style="fill:black">minOccurs: 3</text><text x="910" y="2900" font-size="8" style="fill:black">maxOccurs: unbounded</text><text x="910" y="2910" font-size="8" style="fill:black">name: ref</text><text x="910" y="2920" font-size="8" style="fill:black">type: xs:string</text></svg>