<?xml version="1.0" encoding="utf-8"?><svg width="auto" height="4720" style="overflow:visible " version="1.1" xmlns="http://www.w3.org/2000/svg"><rect x="20" y="20" width="200" height="40" style="fill:white;stroke:black;stroke-width:1" /><text x="30" y="30" font-size="10" style="fill:blue">xsl:stylesheet</text><text x="30" y="40" font-size="8" style="fill:black">version: 1.0</text><text x="30" y="50" font-size="8" style="fill:black">xmlns:xsl: http://www.w3.org/1999/XSL/Transform</text><rect x="240" y="20" width="200" height="40" style="fill:white;stroke:black;stroke-width:1" /><text x="250" y="30" font-size="10" style="fill:blue">xsl:output</text><path d="M220 40 C240 40 220 40 240 40" style="fill:transparent;stroke:black" /><text x="250" y="40" font-size="8" style="fill:black">method: html</text><text x="250" y="50" font-size="8" style="fill:black">version: 1.0</text><text x="250" y="60" font-size="8" style="fill:black">encoding: UTF-8</text><text x="250" y="70" font-size="8" style="fill:black">indent: yes</text><rect x="240" y="70" width="200" height="40" style="fill:white;stroke:black;stroke-width:1" /><text x="250" y="80" font-size="10" style="fill:blue">xsl:param</text><path d="M220 40 C240 40 220 90 240 90" style="fill:transparent;stroke:black" /><text x="250" y="90" font-size="8" style="fill:black">name: tipoRuta</text><text x="250" y="100" font-size="8" style="fill:black">select: 'tipo'</text><rect x="240" y="120" width="200" height="40" style="fill:white;stroke:black;stroke-width:1" /><text x="250" y="130" font-size="10" style="fill:blue">xsl:template</text><path d="M220 40 C240 40 220 140 240 140" style="fill:transparent;stroke:black" /><text x="250" y="140" font-size="8" style="fill:black">match: /</text><rect x="460" y="120" width="200" height="40" style="fill:white;stroke:black;stroke-width:1" /><text x="470" y="130" font-size="10" style="fill:blue">html</text><path d="M440 140 C460 140 440 140 460 140" style="fill:transparent;stroke:black" /><text x="470" y="140" font-size="8" style="fill:black">lang: es</text><rect x="680" y="120" width="200" height="40" style="fill:white;stroke:black;stroke-width:1" /><text x="690" y="130" font-size="10" style="fill:blue">head</text><path d="M660 140 C680 140 660 140 680 140" style="fill:transparent;stroke:black" /><rect x="900" y="120" width="200" height="40" style="fill:white;stroke:black;stroke-width:1" /><text x="910" y="130" font-size="10" style="fill:blue">meta</text><path d="M880 140 C900 140 880 140 900 140" style="fill:transparent;stroke:black" /><text x="910" y="140" font-size="8" style="fill:black">charset: UTF-8</text><rect x="900" y="170" width="200" height="40" style="fill:white;stroke:black;stroke-width:1" /><text x="910" y="180" font-size="10" style="fill:blue">title</text><path d="M880 140 C900 140 880 190 900 190" style="fill:transparent;stroke:black" /><rect x="966" y="170" width="137" height="40" style="fill:green;stroke:black;stroke-width:1" /><text x="976" y="180" font-size="8" style="fill:white">Guía de rutas turísticas</text><rect x="900" y="220" width="200" height="40" style="fill:white;stroke:black;stroke-width:1" /><text x="910" y="230" font-size="10" style="fill:blue">meta</text><path d="M880 140 C900 140 880 240 900 240" style="fill:transparent;stroke:black" /><text x="910" y="240" font-size="8" style="fill:black">name: viewport</text><text x="910" y="250" font-size="8" style="fill:black">content: width=device-width, initial-scale=1</text><rect x="900" y="270" width="200" height="40" style="fill:white;stroke:black;stroke-width:1" /><text x="910" y="280" font-size="10" style="fill:blue">link</text><path d="M880 140 C900 140 880 290 900 290" style="fill:transparent;stroke:black" /><text x="910" y="290" font-size="8" style="fill:black">rel: stylesheet</text><text x="910" y="300" font-size="8" style="fill:black">type: text/css</text><text x="910" y="310" font-size="8" style="fill:black">href: tarea1.css</text><rect x="680" y="370" width="200" height="40" style="fill:white;stroke:black;stroke-width:1" /><text x="690" y="380" font-size="10" style="fill:blue">body</text><path d="M660 140 C680 140 660 390 680 390" style="fill:transparent;stroke:black" /><rect x="900" y="370" width="200" height="40" style="fill:white;stroke:black;stroke-width:1" /><text x="910" y="380" font-size="10" style="fill:blue">h1</text><path d="M880 390 C900 390 880 390 900 390" style="fill:transparent;stroke:black" /><rect x="966" y="370" width="137" height="40" style="fill:green;stroke:black;stroke-width:1" /><text x="976" y="380" font-size="8" style="fill:white">Lista de rutas turísticas</text><rect x="900" y="420" width="200" height="40" style="fill:white;stroke:black;stroke-width:1" /><text x="910" y="430" font-size="10" style="fill:blue">xsl:for-each</text><path d="M880 390 C900 390 880 440 900 440" style="fill:transparent;stroke:black" /><text x="910" y="440" font-size="8" style="fill:black">select: rutas/ruta</text><rect x="1120" y="420" width="200" height="40" style="fill:white;stroke:black;stroke-width:1" /><text x="1130" y="430" font-size="10" style="fill:blue">section</text><path d="M1100 440 C1120 440 1100 440 1120 440" style="fill:transparent;stroke:black" /><rect x="1340" y="420" width="200" height="40" style="fill:white;stroke:black;stroke-width:1" /><text x="1350" y="430" font-size="10" style="fill:blue">h2</text><path d="M1320 440 C1340 440 1320 440 1340 440" style="fill:transparent;stroke:black" /><rect x="1560" y="420" width="200" height="40" style="fill:white;stroke:black;stroke-width:1" /><text x="1570" y="430" font-size="10" style="fill:blue">xsl:value-of</text><path d="M1540 440 C1560 440 1540 440 1560 440" style="fill:transparent;stroke:black" /><text x="1570" y="440" font-size="8" style="fill:black">select: nombre</text><rect x="1340" y="520" width="200" height="40" style="fill:white;stroke:black;stroke-width:1" /><text x="1350" y="530" font-size="10" style="fill:blue">table</text><path d="M1320 440 C1340 440 1320 540 1340 540" style="fill:transparent;stroke:black" /><rect x="1560" y="520" width="200" height="40" style="fill:white;stroke:black;stroke-width:1" /><text x="1570" y="530" font-size="10" style="fill:blue">tr</text><path d="M1540 540 C1560 540 1540 540 1560 540" style="fill:transparent;stroke:black" /><rect x="1780" y="520" width="200" height="40" style="fill:white;stroke:black;stroke-width:1" /><text x="1790" y="530" font-size="10" style="fill:blue">th</text><path d="M1760 540 C1780 540 1760 540 1780 540" style="fill:transparent;stroke:black" /><rect x="1846" y="520" width="137" height="40" style="fill:green;stroke:black;stroke-width:1" /><text x="1856" y="530" font-size="8" style="fill:white">Tipo</text><rect x="1780" y="570" width="200" height="40" style="fill:white;stroke:black;stroke-width:1" /><text x="1790" y="580" font-size="10" style="fill:blue">th</text><path d="M1760 540 C1780 540 1760 590 1780 590" style="fill:transparent;stroke:black" /><rect x="1846" y="570" width="137" height="40" style="fill:green;stroke:black;stroke-width:1" /><text x="1856" y="580" font-size="8" style="fill:white">Medio</text><rect x="1780" y="620" width="200" height="40" style="fill:white;stroke:black;stroke-width:1" /><text x="1790" y="630" font-size="10" style="fill:blue">th</text><path d="M1760 540 C1780 540 1760 640 1780 640" style="fill:transparent;stroke:black" /><rect x="1846" y="620" width="137" height="40" style="fill:green;stroke:black;stroke-width:1" /><text x="1856" y="630" font-size="8" style="fill:white">Duración</text><rect x="1780" y="670" width="200" height="40" style="fill:white;stroke:black;stroke-width:1" /><text x="1790" y="680" font-size="10" style="fill:blue">th</text><path d="M1760 540 C1780 540 1760 690 1780 690" style="fill:transparent;stroke:black" /><rect x="1846" y="670" width="137" height="40" style="fill:green;stroke:black;stroke-width:1" /><text x="1856" y="680" font-size="8" style="fill:white">Agencia</text><rect x="1780" y="720" width="200" height="40" style="fill:white;stroke:black;stroke-width:1" /><text x="1790" y="730" font-size="10" style="fill:blue">th</text><path d="M1760 540 C1780 540 1760 740 1780 740" style="fill:transparent;stroke:black" /><rect x="1846" y="720" width="137" height="40" style="fill:green;stroke:black;stroke-width:1" /><text x="1856" y="730" font-size="8" style="fill:white">Adecuado para</text><rect x="1780" y="770" width="200" height="40" style="fill:white;stroke:black;stroke-width:1" /><text x="1790" y="780" font-size="10" style="fill:blue">th</text><path d="M1760 540 C1780 540 1760 790 1780 790" style="fill:transparent;stroke:black" /><rect x="1846" y="770" width="137" height="40" style="fill:green;stroke:black;stroke-width:1" /><text x="1856" y="780" font-size="8" style="fill:white">Recomendación</text><rect x="1560" y="870" width="200" height="40" style="fill:white;stroke:black;stroke-width:1" /><text x="1570" y="880" font-size="10" style="fill:blue">tr</text><path d="M1540 540 C1560 540 1540 890 1560 890" style="fill:transparent;stroke:black" /><rect x="1780" y="870" width="200" height="40" style="fill:white;stroke:black;stroke-width:1" /><text x="1790" y="880" font-size="10" style="fill:blue">td</text><path d="M1760 890 C1780 890 1760 890 1780 890" style="fill:transparent;stroke:black" /><rect x="2000" y="870" width="200" height="40" style="fill:white;stroke:black;stroke-width:1" /><text x="2010" y="880" font-size="10" style="fill:blue">xsl:value-of</text><path d="M1980 890 C2000 890 1980 890 2000 890" style="fill:transparent;stroke:black" /><text x="2010" y="890" font-size="8" style="fill:black">select: @tipo</text><rect x="1780" y="970" width="200" height="40" style="fill:white;stroke:black;stroke-width:1" /><text x="1790" y="980" font-size="10" style="fill:blue">td</text><path d="M1760 890 C1780 890 1760 990 1780 990" style="fill:transparent;stroke:black" /><rect x="2000" y="970" width="200" height="40" style="fill:white;stroke:black;stroke-width:1" /><text x="2010" y="980" font-size="10" style="fill:blue">xsl:value-of</text><path d="M1980 990 C2000 990 1980 990 2000 990" style="fill:transparent;stroke:black" /><text x="2010" y="990" font-size="8" style="fill:black">select: @medio</text><rect x="1780" y="1070" width="200" height="40" style="fill:white;stroke:black;stroke-width:1" /><text x="1790" y="1080" font-size="10" style="fill:blue">td</text><path d="M1760 890 C1780 890 1760 1090 1780 1090" style="fill:transparent;stroke:black" /><rect x="2000" y="1070" width="200" height="40" style="fill:white;stroke:black;stroke-width:1" /><text x="2010" y="1080" font-size="10" style="fill:blue">xsl:value-of</text><path d="M1980 1090 C2000 1090 1980 1090 2000 1090" style="fill:transparent;stroke:black" /><text x="2010" y="1090" font-size="8" style="fill:black">select: @duracion</text><rect x="1780" y="1170" width="200" height="40" style="fill:white;stroke:black;stroke-width:1" /><text x="1790" y="1180" font-size="10" style="fill:blue">td</text><path d="M1760 890 C1780 890 1760 1190 1780 1190" style="fill:transparent;stroke:black" /><rect x="2000" y="1170" width="200" height="40" style="fill:white;stroke:black;stroke-width:1" /><text x="2010" y="1180" font-size="10" style="fill:blue">xsl:value-of</text><path d="M1980 1190 C2000 1190 1980 1190 2000 1190" style="fill:transparent;stroke:black" /><text x="2010" y="1190" font-size="8" style="fill:black">select: @agencia</text><rect x="1780" y="1270" width="200" height="40" style="fill:white;stroke:black;stroke-width:1" /><text x="1790" y="1280" font-size="10" style="fill:blue">td</text><path d="M1760 890 C1780 890 1760 1290 1780 1290" style="fill:transparent;stroke:black" /><rect x="2000" y="1270" width="200" height="40" style="fill:white;stroke:black;stroke-width:1" /><text x="2010" y="1280" font-size="10" style="fill:blue">xsl:value-of</text><path d="M1980 1290 C2000 1290 1980 1290 2000 1290" style="fill:transparent;stroke:black" /><text x="2010" y="1290" font-size="8" style="fill:black">select: @adecuadoPara</text><rect x="1780" y="1370" width="200" height="40" style="fill:white;stroke:black;stroke-width:1" /><text x="1790" y="1380" font-size="10" style="fill:blue">td</text><path d="M1760 890 C1780 890 1760 1390 1780 1390" style="fill:transparent;stroke:black" /><rect x="2000" y="1370" width="200" height="40" style="fill:white;stroke:black;stroke-width:1" /><text x="2010" y="1380" font-size="10" style="fill:blue">xsl:value-of</text><path d="M1980 1390 C2000 1390 1980 1390 2000 1390" style="fill:transparent;stroke:black" /><text x="2010" y="1390" font-size="8" style="fill:black">select: @recomendacion</text><rect x="1340" y="1570" width="200" height="40" style="fill:white;stroke:black;stroke-width:1" /><text x="1350" y="1580" font-size="10" style="fill:blue">p</text><path d="M1320 440 C1340 440 1320 1590 1340 1590" style="fill:transparent;stroke:black" /><rect x="1406" y="1570" width="137" height="40" style="fill:green;stroke:black;stroke-width:1" /><text x="1416" y="1580" font-size="8" style="fill:white">
            Inicio en:  </text><rect x="1560" y="1570" width="200" height="40" style="fill:white;stroke:black;stroke-width:1" /><text x="1570" y="1580" font-size="10" style="fill:blue">xsl:value-of</text><path d="M1540 1590 C1560 1590 1540 1590 1560 1590" style="fill:transparent;stroke:black" /><text x="1570" y="1590" font-size="8" style="fill:black">select: inicio/lugar</text><rect x="1406" y="1620" width="137" height="40" style="fill:green;stroke:black;stroke-width:1" /><text x="1416" y="1630" font-size="8" style="fill:white"> ( </text><rect x="1560" y="1620" width="200" height="40" style="fill:white;stroke:black;stroke-width:1" /><text x="1570" y="1630" font-size="10" style="fill:blue">xsl:value-of</text><path d="M1540 1590 C1560 1590 1540 1640 1560 1640" style="fill:transparent;stroke:black" /><text x="1570" y="1640" font-size="8" style="fill:black">select: inicio/@direccion</text><rect x="1406" y="1670" width="137" height="40" style="fill:green;stroke:black;stroke-width:1" /><text x="1416" y="1680" font-size="8" style="fill:white">). </text><rect x="1560" y="1670" width="200" height="40" style="fill:white;stroke:black;stroke-width:1" /><text x="1570" y="1680" font-size="10" style="fill:blue">br</text><path d="M1540 1590 C1560 1590 1540 1690 1560 1690" style="fill:transparent;stroke:black" /><rect x="1406" y="1720" width="137" height="40" style="fill:green;stroke:black;stroke-width:1" /><text x="1416" y="1730" font-size="8" style="fill:white">
            
            x,y,z:</text><rect x="1560" y="1720" width="200" height="40" style="fill:white;stroke:black;stroke-width:1" /><text x="1570" y="1730" font-size="10" style="fill:blue">xsl:text</text><path d="M1540 1590 C1560 1590 1540 1740 1560 1740" style="fill:transparent;stroke:black" /><rect x="1560" y="1770" width="200" height="40" style="fill:white;stroke:black;stroke-width:1" /><text x="1570" y="1780" font-size="10" style="fill:blue">xsl:value-of</text><path d="M1540 1590 C1560 1590 1540 1790 1560 1790" style="fill:transparent;stroke:black" /><text x="1570" y="1790" font-size="8" style="fill:black">select: inicio/coordenadas/@latitud</text><rect x="1560" y="1820" width="200" height="40" style="fill:white;stroke:black;stroke-width:1" /><text x="1570" y="1830" font-size="10" style="fill:blue">xsl:text</text><path d="M1540 1590 C1560 1590 1540 1840 1560 1840" style="fill:transparent;stroke:black" /><rect x="1626" y="1820" width="137" height="40" style="fill:green;stroke:black;stroke-width:1" /><text x="1636" y="1830" font-size="8" style="fill:white">, </text><rect x="1560" y="1870" width="200" height="40" style="fill:white;stroke:black;stroke-width:1" /><text x="1570" y="1880" font-size="10" style="fill:blue">xsl:value-of</text><path d="M1540 1590 C1560 1590 1540 1890 1560 1890" style="fill:transparent;stroke:black" /><text x="1570" y="1890" font-size="8" style="fill:black">select: inicio/coordenadas/@longitud</text><rect x="1560" y="1920" width="200" height="40" style="fill:white;stroke:black;stroke-width:1" /><text x="1570" y="1930" font-size="10" style="fill:blue">xsl:text</text><path d="M1540 1590 C1560 1590 1540 1940 1560 1940" style="fill:transparent;stroke:black" /><rect x="1626" y="1920" width="137" height="40" style="fill:green;stroke:black;stroke-width:1" /><text x="1636" y="1930" font-size="8" style="fill:white">, </text><rect x="1560" y="1970" width="200" height="40" style="fill:white;stroke:black;stroke-width:1" /><text x="1570" y="1980" font-size="10" style="fill:blue">xsl:value-of</text><path d="M1540 1590 C1560 1590 1540 1990 1560 1990" style="fill:transparent;stroke:black" /><text x="1570" y="1990" font-size="8" style="fill:black">select: inicio/coordenadas/@altitud</text><rect x="1560" y="2020" width="200" height="40" style="fill:white;stroke:black;stroke-width:1" /><text x="1570" y="2030" font-size="10" style="fill:blue">xsl:text</text><path d="M1540 1590 C1560 1590 1540 2040 1560 2040" style="fill:transparent;stroke:black" /><rect x="1626" y="2020" width="137" height="40" style="fill:green;stroke:black;stroke-width:1" /><text x="1636" y="2030" font-size="8" style="fill:white">m.</text><rect x="1560" y="2070" width="200" height="40" style="fill:white;stroke:black;stroke-width:1" /><text x="1570" y="2080" font-size="10" style="fill:blue">br</text><path d="M1540 1590 C1560 1590 1540 2090 1560 2090" style="fill:transparent;stroke:black" /><rect x="1560" y="2120" width="200" height="40" style="fill:white;stroke:black;stroke-width:1" /><text x="1570" y="2130" font-size="10" style="fill:blue">xsl:if</text><path d="M1540 1590 C1560 1590 1540 2140 1560 2140" style="fill:transparent;stroke:black" /><text x="1570" y="2140" font-size="8" style="fill:black">test: fechaInicio</text><rect x="1780" y="2120" width="200" height="40" style="fill:white;stroke:black;stroke-width:1" /><text x="1790" y="2130" font-size="10" style="fill:blue">xsl:value-of</text><path d="M1760 2140 C1780 2140 1760 2140 1780 2140" style="fill:transparent;stroke:black" /><text x="1790" y="2140" font-size="8" style="fill:black">select: fechaInicio</text><rect x="1560" y="2220" width="200" height="40" style="fill:white;stroke:black;stroke-width:1" /><text x="1570" y="2230" font-size="10" style="fill:blue">xsl:if</text><path d="M1540 1590 C1560 1590 1540 2240 1560 2240" style="fill:transparent;stroke:black" /><text x="1570" y="2240" font-size="8" style="fill:black">test: horaInicio</text><rect x="1780" y="2220" width="200" height="40" style="fill:white;stroke:black;stroke-width:1" /><text x="1790" y="2230" font-size="10" style="fill:blue">xsl:if</text><path d="M1760 2240 C1780 2240 1760 2240 1780 2240" style="fill:transparent;stroke:black" /><text x="1790" y="2240" font-size="8" style="fill:black">test: fechaInicio</text><rect x="2000" y="2220" width="200" height="40" style="fill:white;stroke:black;stroke-width:1" /><text x="2010" y="2230" font-size="10" style="fill:blue">xsl:text</text><path d="M1980 2240 C2000 2240 1980 2240 2000 2240" style="fill:transparent;stroke:black" /><rect x="2066" y="2220" width="137" height="40" style="fill:green;stroke:black;stroke-width:1" /><text x="2076" y="2230" font-size="8" style="fill:white">, </text><rect x="1780" y="2320" width="200" height="40" style="fill:white;stroke:black;stroke-width:1" /><text x="1790" y="2330" font-size="10" style="fill:blue">xsl:value-of</text><path d="M1760 2240 C1780 2240 1760 2340 1780 2340" style="fill:transparent;stroke:black" /><text x="1790" y="2340" font-size="8" style="fill:black">select: horaInicio</text><rect x="1340" y="2470" width="200" height="40" style="fill:white;stroke:black;stroke-width:1" /><text x="1350" y="2480" font-size="10" style="fill:blue">xsl:for-each</text><path d="M1320 440 C1340 440 1320 2490 1340 2490" style="fill:transparent;stroke:black" /><text x="1350" y="2490" font-size="8" style="fill:black">select: hitos/hito</text><rect x="1560" y="2470" width="200" height="40" style="fill:white;stroke:black;stroke-width:1" /><text x="1570" y="2480" font-size="10" style="fill:blue">h3</text><path d="M1540 2490 C1560 2490 1540 2490 1560 2490" style="fill:transparent;stroke:black" /><rect x="1780" y="2470" width="200" height="40" style="fill:white;stroke:black;stroke-width:1" /><text x="1790" y="2480" font-size="10" style="fill:blue">xsl:value-of</text><path d="M1760 2490 C1780 2490 1760 2490 1780 2490" style="fill:transparent;stroke:black" /><text x="1790" y="2490" font-size="8" style="fill:black">select: nombreHito</text><rect x="1560" y="2570" width="200" height="40" style="fill:white;stroke:black;stroke-width:1" /><text x="1570" y="2580" font-size="10" style="fill:blue">p</text><path d="M1540 2490 C1560 2490 1540 2590 1560 2590" style="fill:transparent;stroke:black" /><rect x="1626" y="2570" width="137" height="40" style="fill:green;stroke:black;stroke-width:1" /><text x="1636" y="2580" font-size="8" style="fill:white">
              x,y,z: </text><rect x="1780" y="2570" width="200" height="40" style="fill:white;stroke:black;stroke-width:1" /><text x="1790" y="2580" font-size="10" style="fill:blue">xsl:text</text><path d="M1760 2590 C1780 2590 1760 2590 1780 2590" style="fill:transparent;stroke:black" /><rect x="1780" y="2620" width="200" height="40" style="fill:white;stroke:black;stroke-width:1" /><text x="1790" y="2630" font-size="10" style="fill:blue">xsl:value-of</text><path d="M1760 2590 C1780 2590 1760 2640 1780 2640" style="fill:transparent;stroke:black" /><text x="1790" y="2640" font-size="8" style="fill:black">select: coordenadas/@latitud</text><rect x="1780" y="2670" width="200" height="40" style="fill:white;stroke:black;stroke-width:1" /><text x="1790" y="2680" font-size="10" style="fill:blue">xsl:text</text><path d="M1760 2590 C1780 2590 1760 2690 1780 2690" style="fill:transparent;stroke:black" /><rect x="1846" y="2670" width="137" height="40" style="fill:green;stroke:black;stroke-width:1" /><text x="1856" y="2680" font-size="8" style="fill:white">, </text><rect x="1780" y="2720" width="200" height="40" style="fill:white;stroke:black;stroke-width:1" /><text x="1790" y="2730" font-size="10" style="fill:blue">xsl:value-of</text><path d="M1760 2590 C1780 2590 1760 2740 1780 2740" style="fill:transparent;stroke:black" /><text x="1790" y="2740" font-size="8" style="fill:black">select: coordenadas/@longitud</text><rect x="1780" y="2770" width="200" height="40" style="fill:white;stroke:black;stroke-width:1" /><text x="1790" y="2780" font-size="10" style="fill:blue">xsl:text</text><path d="M1760 2590 C1780 2590 1760 2790 1780 2790" style="fill:transparent;stroke:black" /><rect x="1846" y="2770" width="137" height="40" style="fill:green;stroke:black;stroke-width:1" /><text x="1856" y="2780" font-size="8" style="fill:white">, </text><rect x="1780" y="2820" width="200" height="40" style="fill:white;stroke:black;stroke-width:1" /><text x="1790" y="2830" font-size="10" style="fill:blue">xsl:value-of</text><path d="M1760 2590 C1780 2590 1760 2840 1780 2840" style="fill:transparent;stroke:black" /><text x="1790" y="2840" font-size="8" style="fill:black">select: coordenadas/@altitud</text><rect x="1780" y="2870" width="200" height="40" style="fill:white;stroke:black;stroke-width:1" /><text x="1790" y="2880" font-size="10" style="fill:blue">xsl:text</text><path d="M1760 2590 C1780 2590 1760 2890 1780 2890" style="fill:transparent;stroke:black" /><rect x="1846" y="2870" width="137" height="40" style="fill:green;stroke:black;stroke-width:1" /><text x="1856" y="2880" font-size="8" style="fill:white">m </text><rect x="1626" y="2920" width="137" height="40" style="fill:green;stroke:black;stroke-width:1" /><text x="1636" y="2930" font-size="8" style="fill:white">
              (</text><rect x="1780" y="2920" width="200" height="40" style="fill:white;stroke:black;stroke-width:1" /><text x="1790" y="2930" font-size="10" style="fill:blue">xsl:value-of</text><path d="M1760 2590 C1780 2590 1760 2940 1780 2940" style="fill:transparent;stroke:black" /><text x="1790" y="2940" font-size="8" style="fill:black">select: @distancia</text><rect x="1780" y="2970" width="200" height="40" style="fill:white;stroke:black;stroke-width:1" /><text x="1790" y="2980" font-size="10" style="fill:blue">xsl:value-of</text><path d="M1760 2590 C1780 2590 1760 2990 1780 2990" style="fill:transparent;stroke:black" /><text x="1790" y="2990" font-size="8" style="fill:black">select: @unidades</text><rect x="1626" y="3020" width="137" height="40" style="fill:green;stroke:black;stroke-width:1" /><text x="1636" y="3030" font-size="8" style="fill:white">)
            </text><rect x="1560" y="3070" width="200" height="40" style="fill:white;stroke:black;stroke-width:1" /><text x="1570" y="3080" font-size="10" style="fill:blue">p</text><path d="M1540 2490 C1560 2490 1540 3090 1560 3090" style="fill:transparent;stroke:black" /><rect x="1780" y="3070" width="200" height="40" style="fill:white;stroke:black;stroke-width:1" /><text x="1790" y="3080" font-size="10" style="fill:blue">xsl:value-of</text><path d="M1760 3090 C1780 3090 1760 3090 1780 3090" style="fill:transparent;stroke:black" /><text x="1790" y="3090" font-size="8" style="fill:black">select: descripcionHito</text><rect x="1560" y="3170" width="200" height="40" style="fill:white;stroke:black;stroke-width:1" /><text x="1570" y="3180" font-size="10" style="fill:blue">h4</text><path d="M1540 2490 C1560 2490 1540 3190 1560 3190" style="fill:transparent;stroke:black" /><rect x="1626" y="3170" width="137" height="40" style="fill:green;stroke:black;stroke-width:1" /><text x="1636" y="3180" font-size="8" style="fill:white">Imágenes</text><rect x="1560" y="3220" width="200" height="40" style="fill:white;stroke:black;stroke-width:1" /><text x="1570" y="3230" font-size="10" style="fill:blue">xsl:for-each</text><path d="M1540 2490 C1560 2490 1540 3240 1560 3240" style="fill:transparent;stroke:black" /><text x="1570" y="3240" font-size="8" style="fill:black">select: imagenes/imagen</text><rect x="1780" y="3220" width="200" height="40" style="fill:white;stroke:black;stroke-width:1" /><text x="1790" y="3230" font-size="10" style="fill:blue">img</text><path d="M1760 3240 C1780 3240 1760 3240 1780 3240" style="fill:transparent;stroke:black" /><rect x="2000" y="3220" width="200" height="40" style="fill:white;stroke:black;stroke-width:1" /><text x="2010" y="3230" font-size="10" style="fill:blue">xsl:attribute</text><path d="M1980 3240 C2000 3240 1980 3240 2000 3240" style="fill:transparent;stroke:black" /><text x="2010" y="3240" font-size="8" style="fill:black">name: src</text><rect x="2220" y="3220" width="200" height="40" style="fill:white;stroke:black;stroke-width:1" /><text x="2230" y="3230" font-size="10" style="fill:blue">xsl:value-of</text><path d="M2200 3240 C2220 3240 2200 3240 2220 3240" style="fill:transparent;stroke:black" /><text x="2230" y="3240" font-size="8" style="fill:black">select: .</text><rect x="1560" y="3420" width="200" height="40" style="fill:white;stroke:black;stroke-width:1" /><text x="1570" y="3430" font-size="10" style="fill:blue">xsl:if</text><path d="M1540 2490 C1560 2490 1540 3440 1560 3440" style="fill:transparent;stroke:black" /><text x="1570" y="3440" font-size="8" style="fill:black">test: videos/video</text><rect x="1780" y="3420" width="200" height="40" style="fill:white;stroke:black;stroke-width:1" /><text x="1790" y="3430" font-size="10" style="fill:blue">h4</text><path d="M1760 3440 C1780 3440 1760 3440 1780 3440" style="fill:transparent;stroke:black" /><rect x="1846" y="3420" width="137" height="40" style="fill:green;stroke:black;stroke-width:1" /><text x="1856" y="3430" font-size="8" style="fill:white">Vídeos</text><rect x="1780" y="3470" width="200" height="40" style="fill:white;stroke:black;stroke-width:1" /><text x="1790" y="3480" font-size="10" style="fill:blue">xsl:for-each</text><path d="M1760 3440 C1780 3440 1760 3490 1780 3490" style="fill:transparent;stroke:black" /><text x="1790" y="3490" font-size="8" style="fill:black">select: videos/video</text><rect x="2000" y="3470" width="200" height="40" style="fill:white;stroke:black;stroke-width:1" /><text x="2010" y="3480" font-size="10" style="fill:blue">video</text><path d="M1980 3490 C2000 3490 1980 3490 2000 3490" style="fill:transparent;stroke:black" /><text x="2010" y="3490" font-size="8" style="fill:black">width: 320</text><text x="2010" y="3500" font-size="8" style="fill:black">height: 240</text><text x="2010" y="3510" font-size="8" style="fill:black">controls: </text><rect x="2220" y="3470" width="200" height="40" style="fill:white;stroke:black;stroke-width:1" /><text x="2230" y="3480" font-size="10" style="fill:blue">source</text><path d="M2200 3490 C2220 3490 2200 3490 2220 3490" style="fill:transparent;stroke:black" /><text x="2230" y="3490" font-size="8" style="fill:black">type: video/mp4</text><rect x="2440" y="3470" width="200" height="40" style="fill:white;stroke:black;stroke-width:1" /><text x="2450" y="3480" font-size="10" style="fill:blue">xsl:attribute</text><path d="M2420 3490 C2440 3490 2420 3490 2440 3490" style="fill:transparent;stroke:black" /><text x="2450" y="3490" font-size="8" style="fill:black">name: src</text><rect x="2660" y="3470" width="200" height="40" style="fill:white;stroke:black;stroke-width:1" /><text x="2670" y="3480" font-size="10" style="fill:blue">xsl:value-of</text><path d="M2640 3490 C2660 3490 2640 3490 2660 3490" style="fill:transparent;stroke:black" /><text x="2670" y="3490" font-size="8" style="fill:black">select: .</text><rect x="2220" y="3620" width="200" height="40" style="fill:white;stroke:black;stroke-width:1" /><text x="2230" y="3630" font-size="10" style="fill:blue">xsl:if</text><path d="M2200 3490 C2220 3490 2200 3640 2220 3640" style="fill:transparent;stroke:black" /><text x="2230" y="3640" font-size="8" style="fill:black">test: contains(., '.mp4')</text><rect x="2440" y="3620" width="200" height="40" style="fill:white;stroke:black;stroke-width:1" /><text x="2450" y="3630" font-size="10" style="fill:blue">source</text><path d="M2420 3640 C2440 3640 2420 3640 2440 3640" style="fill:transparent;stroke:black" /><text x="2450" y="3640" font-size="8" style="fill:black">type: video/mp4</text><rect x="2660" y="3620" width="200" height="40" style="fill:white;stroke:black;stroke-width:1" /><text x="2670" y="3630" font-size="10" style="fill:blue">xsl:attribute</text><path d="M2640 3640 C2660 3640 2640 3640 2660 3640" style="fill:transparent;stroke:black" /><text x="2670" y="3640" font-size="8" style="fill:black">name: src</text><rect x="2880" y="3620" width="200" height="40" style="fill:white;stroke:black;stroke-width:1" /><text x="2890" y="3630" font-size="10" style="fill:blue">xsl:value-of</text><path d="M2860 3640 C2880 3640 2860 3640 2880 3640" style="fill:transparent;stroke:black" /><text x="2890" y="3640" font-size="8" style="fill:black">select: .</text><rect x="2220" y="3820" width="200" height="40" style="fill:white;stroke:black;stroke-width:1" /><text x="2230" y="3830" font-size="10" style="fill:blue">xsl:if</text><path d="M2200 3490 C2220 3490 2200 3840 2220 3840" style="fill:transparent;stroke:black" /><text x="2230" y="3840" font-size="8" style="fill:black">test: contains(., '.ogg')</text><rect x="2440" y="3820" width="200" height="40" style="fill:white;stroke:black;stroke-width:1" /><text x="2450" y="3830" font-size="10" style="fill:blue">source</text><path d="M2420 3840 C2440 3840 2420 3840 2440 3840" style="fill:transparent;stroke:black" /><text x="2450" y="3840" font-size="8" style="fill:black">type: video/ogg</text><rect x="2660" y="3820" width="200" height="40" style="fill:white;stroke:black;stroke-width:1" /><text x="2670" y="3830" font-size="10" style="fill:blue">xsl:attribute</text><path d="M2640 3840 C2660 3840 2640 3840 2660 3840" style="fill:transparent;stroke:black" /><text x="2670" y="3840" font-size="8" style="fill:black">name: src</text><rect x="2880" y="3820" width="200" height="40" style="fill:white;stroke:black;stroke-width:1" /><text x="2890" y="3830" font-size="10" style="fill:blue">xsl:value-of</text><path d="M2860 3840 C2880 3840 2860 3840 2880 3840" style="fill:transparent;stroke:black" /><text x="2890" y="3840" font-size="8" style="fill:black">select: .</text><rect x="2066" y="4020" width="137" height="40" style="fill:green;stroke:black;stroke-width:1" /><text x="2076" y="4030" font-size="8" style="fill:white">
                  Your browser does not support the video tag.
                </text><rect x="1340" y="4220" width="200" height="40" style="fill:white;stroke:black;stroke-width:1" /><text x="1350" y="4230" font-size="10" style="fill:blue">ul</text><path d="M1320 440 C1340 440 1320 4240 1340 4240" style="fill:transparent;stroke:black" /><rect x="1560" y="4220" width="200" height="40" style="fill:white;stroke:black;stroke-width:1" /><text x="1570" y="4230" font-size="10" style="fill:blue">xsl:for-each</text><path d="M1540 4240 C1560 4240 1540 4240 1560 4240" style="fill:transparent;stroke:black" /><text x="1570" y="4240" font-size="8" style="fill:black">select: bibliografia/ref</text><rect x="1780" y="4220" width="200" height="40" style="fill:white;stroke:black;stroke-width:1" /><text x="1790" y="4230" font-size="10" style="fill:blue">li</text><path d="M1760 4240 C1780 4240 1760 4240 1780 4240" style="fill:transparent;stroke:black" /><rect x="2000" y="4220" width="200" height="40" style="fill:white;stroke:black;stroke-width:1" /><text x="2010" y="4230" font-size="10" style="fill:blue">xsl:value-of</text><path d="M1980 4240 C2000 4240 1980 4240 2000 4240" style="fill:transparent;stroke:black" /><text x="2010" y="4240" font-size="8" style="fill:black">select: .</text></svg>